# Blender v2.81 (sub 16) OBJ File: 'sword.blend'
# www.blender.org
mtllib sword.mtl
o sword_Cylinder
v -0.000000 1.400000 0.000000
v 0.017321 0.120000 0.010000
v 0.010000 0.120000 0.017321
v -0.010000 0.120000 0.017321
v -0.020000 0.120000 0.000000
v -0.010000 0.120000 -0.017321
v 0.010000 0.090000 -0.017321
v 0.017321 0.090000 -0.010000
v 0.020000 0.090000 0.000000
v 0.017321 0.090000 0.010000
v 0.010000 0.090000 0.017321
v 0.000000 0.090000 0.020000
v -0.010000 0.090000 0.017321
v -0.017321 0.090000 0.010000
v -0.020000 0.090000 0.000000
v -0.017321 0.090000 -0.010000
v -0.010000 0.090000 -0.017321
v 0.000000 0.090000 -0.020000
v 0.000000 0.111000 -0.040000
v 0.020000 0.111000 -0.034641
v 0.034641 0.111000 -0.020000
v 0.040000 0.111000 -0.000000
v 0.034641 0.111000 0.020000
v 0.020000 0.111000 0.034641
v 0.000000 0.111000 0.040000
v -0.020000 0.111000 0.034641
v -0.034641 0.111000 0.020000
v -0.040000 0.111000 0.000000
v -0.034641 0.111000 -0.020000
v -0.020000 0.111000 -0.034641
v 0.020000 0.099000 -0.034641
v 0.034641 0.099000 -0.020000
v 0.040000 0.099000 -0.000000
v 0.034641 0.099000 0.020000
v 0.020000 0.099000 0.034641
v 0.000000 0.099000 0.040000
v -0.020000 0.099000 0.034641
v -0.034641 0.099000 0.020000
v -0.040000 0.099000 0.000000
v -0.034641 0.099000 -0.020000
v -0.020000 0.099000 -0.034641
v 0.000000 0.099000 -0.040000
v 0.010000 -0.159500 -0.017321
v 0.017321 -0.159500 -0.010000
v 0.020000 -0.159500 0.000000
v 0.017321 -0.159500 0.010000
v 0.010000 -0.159500 0.017321
v 0.000000 -0.159500 0.020000
v -0.010000 -0.159500 0.017321
v -0.017321 -0.159500 0.010000
v -0.020000 -0.159500 0.000000
v -0.017321 -0.159500 -0.010000
v -0.010000 -0.159500 -0.017321
v 0.000000 -0.159500 -0.020000
v 0.000000 -0.199875 0.000000
v 0.014000 -0.179625 -0.024249
v 0.024249 -0.179625 -0.014000
v 0.028000 -0.179625 0.000000
v 0.024249 -0.179625 0.014000
v 0.014000 -0.179625 0.024249
v 0.000000 -0.179625 0.028000
v -0.014000 -0.179625 0.024249
v -0.024249 -0.179625 0.014000
v -0.028000 -0.179625 0.000000
v -0.024249 -0.179625 -0.014000
v -0.014000 -0.179625 -0.024249
v 0.000000 -0.179625 -0.028000
v 0.000000 -0.199875 -0.028000
v 0.014000 -0.199875 -0.024249
v 0.024249 -0.199875 -0.014000
v 0.028000 -0.199875 0.000000
v 0.024249 -0.199875 0.014000
v 0.014000 -0.199875 0.024249
v 0.000000 -0.199875 0.028000
v -0.014000 -0.199875 0.024249
v -0.024249 -0.199875 0.014000
v -0.028000 -0.199875 0.000000
v -0.024249 -0.199875 -0.014000
v -0.014000 -0.199875 -0.024249
v 0.010000 1.400000 -0.017321
v 0.000000 1.400000 -0.020000
v 0.017321 1.400000 -0.010000
v 0.020000 1.400000 0.000000
v 0.017321 1.400000 0.010000
v 0.010000 1.400000 0.017321
v 0.000000 1.400000 0.020000
v -0.010000 1.400000 0.017321
v -0.017321 1.400000 0.010000
v -0.020000 1.400000 0.000000
v -0.017321 1.400000 -0.010000
v -0.010000 1.400000 -0.017321
v 0.000000 0.200000 -0.020000
v -0.017321 0.200000 -0.010000
v -0.020000 0.200000 0.000000
v -0.017321 0.200000 0.010000
v 0.000000 0.200000 0.020000
v 0.010000 0.200000 -0.017321
v 0.017321 0.160000 0.010000
v 0.010000 0.160000 0.017321
v 0.000000 0.160000 0.020000
v -0.010000 0.160000 0.017321
v -0.017321 0.160000 0.010000
v -0.020000 0.160000 0.000000
v -0.017321 0.160000 -0.010000
v 0.010000 0.130000 -0.017321
v 0.017321 0.130000 0.010000
v -0.010000 0.130000 0.017321
v 0.000000 0.151000 -0.040000
v 0.020000 0.151000 -0.034641
v 0.034641 0.151000 -0.020000
v 0.040000 0.151000 -0.000000
v 0.034641 0.151000 0.020000
v 0.020000 0.151000 0.034641
v 0.000000 0.151000 0.040000
v -0.020000 0.151000 0.034641
v -0.034641 0.151000 0.020000
v -0.040000 0.151000 0.000000
v -0.034641 0.151000 -0.020000
v -0.020000 0.151000 -0.034641
v 0.020000 0.139000 -0.034641
v 0.034641 0.139000 -0.020000
v 0.040000 0.139000 -0.000000
v 0.034641 0.139000 0.020000
v 0.020000 0.139000 0.034641
v 0.000000 0.139000 0.040000
v -0.020000 0.139000 0.034641
v -0.034641 0.139000 0.020000
v -0.040000 0.139000 0.000000
v -0.034641 0.139000 -0.020000
v -0.020000 0.139000 -0.034641
v 0.000000 0.139000 -0.040000
v 0.017321 0.200000 -0.010000
v 0.017321 0.200000 0.010000
v 0.010000 0.200000 0.017321
v -0.010000 0.200000 0.017321
v -0.010000 0.200000 -0.017321
v 0.010000 0.170000 -0.017321
v 0.017321 0.170000 -0.010000
v 0.000000 0.170000 0.020000
v -0.017321 0.170000 0.010000
v -0.020000 0.170000 0.000000
v -0.017321 0.170000 -0.010000
v 0.000000 0.191000 -0.040000
v 0.020000 0.191000 -0.034641
v 0.034641 0.191000 -0.020000
v 0.040000 0.191000 -0.000000
v 0.034641 0.191000 0.020000
v 0.020000 0.191000 0.034641
v 0.000000 0.191000 0.040000
v -0.020000 0.191000 0.034641
v -0.034641 0.191000 0.020000
v -0.040000 0.191000 0.000000
v -0.034641 0.191000 -0.020000
v -0.020000 0.191000 -0.034641
v 0.020000 0.179000 -0.034641
v 0.034641 0.179000 -0.020000
v 0.040000 0.179000 -0.000000
v 0.034641 0.179000 0.020000
v 0.020000 0.179000 0.034641
v 0.000000 0.179000 0.040000
v -0.020000 0.179000 0.034641
v -0.034641 0.179000 0.020000
v -0.040000 0.179000 0.000000
v -0.034641 0.179000 -0.020000
v -0.020000 0.179000 -0.034641
v 0.000000 0.179000 -0.040000
v 0.020000 0.200000 0.000000
v 0.020000 0.170000 0.000000
v -0.010000 0.170000 -0.017321
v 0.000000 0.170000 -0.020000
v -0.010000 0.170000 0.017321
v 0.010000 0.170000 0.017321
v 0.017321 0.170000 0.010000
v 0.020000 0.160000 0.000000
v -0.010000 0.160000 -0.017321
v 0.000000 0.160000 -0.020000
v 0.017321 0.160000 -0.010000
v 0.010000 0.160000 -0.017321
v 0.020000 0.130000 0.000000
v -0.010000 0.130000 -0.017321
v 0.000000 0.130000 -0.020000
v -0.017321 0.130000 -0.010000
v -0.020000 0.130000 0.000000
v -0.017321 0.130000 0.010000
v 0.000000 0.130000 0.020000
v 0.010000 0.130000 0.017321
v 0.017321 0.130000 -0.010000
v 0.020000 0.120000 0.000000
v 0.000000 0.120000 -0.020000
v -0.017321 0.120000 -0.010000
v -0.017321 0.120000 0.010000
v 0.000000 0.120000 0.020000
v 0.017321 0.120000 -0.010000
v 0.010000 0.120000 -0.017321
vt 0.569050 0.432452
vt 0.609802 0.432452
vt 0.609802 0.463846
vt 0.569050 0.463846
vt 0.528297 0.512416
vt 0.487545 0.512416
vt 0.487545 0.481023
vt 0.528297 0.481023
vt 0.772812 0.432452
vt 0.813564 0.432452
vt 0.813564 0.463846
vt 0.772812 0.463846
vt 0.691307 0.512416
vt 0.650555 0.512416
vt 0.650555 0.481023
vt 0.691307 0.481023
vt 0.976575 0.512416
vt 0.935823 0.512416
vt 0.935822 0.481023
vt 0.976574 0.481023
vt 0.854317 0.432452
vt 0.854317 0.463846
vt 0.609802 0.512416
vt 0.609802 0.481023
vt 0.895070 0.512416
vt 0.895069 0.481023
vt 0.895069 0.432452
vt 0.895069 0.463846
vt 0.854317 0.512416
vt 0.854317 0.481023
vt 0.935821 0.432452
vt 0.935821 0.463846
vt 0.650555 0.432452
vt 0.650555 0.463846
vt 0.609802 0.075315
vt 0.569050 0.075315
vt 0.528297 0.432452
vt 0.528297 0.075315
vt 0.487545 0.432452
vt 0.487545 0.075315
vt 0.976572 0.075315
vt 0.976574 0.432452
vt 0.935819 0.075315
vt 0.895067 0.075315
vt 0.854315 0.075315
vt 0.813563 0.075315
vt 0.772811 0.075315
vt 0.732059 0.432452
vt 0.732059 0.075315
vt 0.691307 0.432452
vt 0.691307 0.075315
vt 0.650554 0.075315
vt 0.691307 0.463846
vt 0.732060 0.463846
vt 0.732060 0.481023
vt 0.772812 0.481023
vt 0.813564 0.481023
vt 0.976574 0.463846
vt 0.528297 0.463846
vt 0.487545 0.463846
vt 0.569050 0.481023
vt 0.732060 0.512416
vt 0.569050 0.512416
vt 0.772813 0.512416
vt 0.813564 0.512416
vt 0.732058 0.044315
vt 0.772811 0.044315
vt 0.854315 0.044315
vt 0.895067 0.044315
vt 0.487545 0.044315
vt 0.528297 0.044315
vt 0.691307 0.044315
vt 0.813563 0.044315
vt 0.935819 0.044315
vt 0.976571 0.044315
vt 0.650554 0.044315
vt 0.569050 0.044315
vt 0.609802 0.044315
vt 0.650554 0.015329
vt 0.609802 0.015329
vt 0.691306 0.015329
vt 0.732059 0.015329
vt 0.772811 0.015329
vt 0.813563 0.015329
vt 0.854315 0.015329
vt 0.895067 0.015329
vt 0.935819 0.015329
vt 0.976571 0.015329
vt 0.528297 0.015329
vt 0.487545 0.015329
vt 0.569050 0.015329
vt 0.574935 0.819019
vt 0.662324 0.795603
vt 0.662324 0.842434
vt 0.638908 0.882992
vt 0.598351 0.906408
vt 0.551519 0.906408
vt 0.510961 0.882992
vt 0.487545 0.842434
vt 0.487545 0.795603
vt 0.510961 0.755045
vt 0.551519 0.731629
vt 0.598351 0.731629
vt 0.638908 0.755045
vt 0.569050 0.526730
vt 0.609802 0.526730
vt 0.609802 0.558123
vt 0.569050 0.558123
vt 0.528297 0.606693
vt 0.487545 0.606694
vt 0.487545 0.575300
vt 0.528297 0.575300
vt 0.772813 0.526730
vt 0.813564 0.526730
vt 0.813564 0.558123
vt 0.772813 0.558123
vt 0.691307 0.606693
vt 0.650555 0.606693
vt 0.650555 0.575300
vt 0.691307 0.575300
vt 0.976577 0.606694
vt 0.935824 0.606693
vt 0.935823 0.575300
vt 0.976576 0.575300
vt 0.854317 0.526730
vt 0.854317 0.558123
vt 0.609802 0.606693
vt 0.609802 0.575300
vt 0.895072 0.606693
vt 0.895071 0.575300
vt 0.895070 0.526730
vt 0.895071 0.558123
vt 0.854317 0.606693
vt 0.854317 0.575300
vt 0.935823 0.526730
vt 0.935823 0.558123
vt 0.650555 0.526730
vt 0.650555 0.558123
vt 0.691307 0.558123
vt 0.732060 0.558123
vt 0.732061 0.575300
vt 0.772813 0.575300
vt 0.813564 0.575300
vt 0.976575 0.558123
vt 0.528297 0.558123
vt 0.487545 0.558123
vt 0.569050 0.575300
vt 0.732061 0.606693
vt 0.732060 0.526730
vt 0.569050 0.606693
vt 0.528297 0.526730
vt 0.772813 0.606693
vt 0.691307 0.526730
vt 0.487545 0.526730
vt 0.813564 0.606693
vt 0.976575 0.526730
vt 0.569050 0.621008
vt 0.609802 0.621008
vt 0.609802 0.652401
vt 0.569050 0.652401
vt 0.528297 0.700971
vt 0.487545 0.700971
vt 0.487545 0.669578
vt 0.528297 0.669578
vt 0.772813 0.621008
vt 0.813564 0.621008
vt 0.813564 0.652401
vt 0.772813 0.652401
vt 0.691307 0.700971
vt 0.650555 0.700971
vt 0.650555 0.669578
vt 0.691307 0.669578
vt 0.976578 0.700971
vt 0.935826 0.700971
vt 0.935825 0.669578
vt 0.976578 0.669578
vt 0.854317 0.621008
vt 0.854317 0.652401
vt 0.609802 0.700971
vt 0.609802 0.669578
vt 0.895073 0.700971
vt 0.895073 0.669578
vt 0.895072 0.621008
vt 0.895073 0.652401
vt 0.854317 0.700971
vt 0.854317 0.669578
vt 0.935825 0.621008
vt 0.935825 0.652401
vt 0.650555 0.621008
vt 0.650555 0.652401
vt 0.691307 0.652401
vt 0.732061 0.652401
vt 0.732061 0.669578
vt 0.772814 0.669578
vt 0.813564 0.669578
vt 0.976577 0.652401
vt 0.528297 0.652401
vt 0.487545 0.652401
vt 0.569050 0.669578
vt 0.732062 0.700971
vt 0.732061 0.621008
vt 0.569050 0.700971
vt 0.528297 0.621008
vt 0.772814 0.700971
vt 0.691307 0.621008
vt 0.487545 0.621008
vt 0.813564 0.700971
vt 0.976577 0.621008
vt 0.125719 0.015329
vt 0.125719 0.984671
vt 0.088923 0.984671
vt 0.088922 0.015329
vt 0.052126 0.984671
vt 0.052126 0.015329
vt 0.015330 0.984671
vt 0.015329 0.015329
vt 0.456887 0.015329
vt 0.456887 0.984671
vt 0.420091 0.984671
vt 0.420090 0.015329
vt 0.383294 0.984671
vt 0.383294 0.015329
vt 0.346498 0.984671
vt 0.346497 0.015329
vt 0.309701 0.984671
vt 0.309701 0.015329
vt 0.272905 0.984671
vt 0.272905 0.015329
vt 0.236108 0.984671
vt 0.236108 0.015329
vt 0.199312 0.984671
vt 0.199311 0.015329
vt 0.162515 0.984671
vt 0.162515 0.015329
vt 0.755404 0.794050
vt 0.801099 0.748355
vt 0.817824 0.777325
vt 0.772129 0.731629
vt 0.738678 0.731629
vt 0.709708 0.748355
vt 0.692982 0.777325
vt 0.692983 0.810776
vt 0.709708 0.839745
vt 0.738678 0.856471
vt 0.772129 0.856471
vt 0.801099 0.839746
vt 0.817824 0.810776
vn 0.2052 -0.9119 -0.3554
vn -0.0000 -0.9119 -0.4104
vn 0.3554 0.9119 -0.2052
vn 0.4104 0.9119 -0.0000
vn -0.3554 -0.9119 0.2052
vn -0.2052 -0.9119 0.3554
vn -0.3554 0.9119 -0.2052
vn -0.2052 0.9119 -0.3554
vn 0.3554 0.9119 0.2052
vn 0.0000 -0.9119 0.4104
vn -0.0000 0.9119 -0.4104
vn 0.2052 0.9119 0.3554
vn 0.2052 -0.9119 0.3554
vn 0.0000 0.9119 0.4104
vn 0.3554 -0.9119 0.2052
vn -0.2052 -0.9119 -0.3554
vn -0.0000 0.1940 -0.9810
vn -0.0000 0.0000 -1.0000
vn 0.2588 0.0000 -0.9659
vn 0.4905 0.1940 -0.8496
vn 0.7071 0.0000 -0.7071
vn 0.8496 0.1940 -0.4905
vn 0.9659 0.0000 -0.2588
vn 1.0000 0.0000 0.0000
vn 0.9810 0.1940 0.0000
vn 0.8660 0.0000 0.5000
vn 0.8496 0.1940 0.4905
vn 0.5000 0.0000 0.8660
vn 0.4905 0.1940 0.8496
vn 0.0000 0.0000 1.0000
vn 0.0000 0.1940 0.9810
vn -0.5000 0.0000 0.8660
vn -0.4905 0.1940 0.8496
vn -0.8660 0.0000 0.5000
vn -0.8496 0.1940 0.4905
vn -1.0000 0.0000 0.0000
vn -0.9810 0.1940 0.0000
vn -0.8660 0.0000 -0.5000
vn -0.8496 0.1940 -0.4905
vn -0.7071 0.0000 -0.7071
vn -0.4905 0.1940 -0.8496
vn -0.2588 0.0000 -0.9659
vn -0.7071 0.0000 0.7071
vn -0.2588 0.0000 0.9659
vn 0.7071 0.0000 0.7071
vn 0.9659 0.0000 0.2588
vn 0.8660 0.0000 -0.5000
vn -0.4104 0.9119 0.0000
vn -0.4104 -0.9119 0.0000
vn 0.2052 0.9119 -0.3554
vn 0.3554 -0.9119 -0.2052
vn -0.3554 0.9119 0.2052
vn -0.3554 -0.9119 -0.2052
vn 0.4104 -0.9119 -0.0000
vn -0.2052 0.9119 0.3554
vn -0.9832 0.1826 0.0000
vn -0.8515 0.1826 0.4916
vn 0.0000 0.1826 0.9832
vn 0.4916 0.1826 0.8515
vn 0.9832 0.1826 0.0000
vn 0.8515 0.1826 -0.4916
vn -0.8515 0.1826 -0.4916
vn -0.4916 0.1826 0.8515
vn 0.8515 0.1826 0.4916
vn -0.4916 0.1826 -0.8515
vn 0.4916 0.1826 -0.8515
vn -0.0000 0.1826 -0.9832
vn 0.2588 0.0000 0.9659
vn 0.5000 0.0000 -0.8660
vn 0.0000 -1.0000 0.0000
vn 0.0000 1.0000 -0.0000
vn -0.9659 0.0000 -0.2588
vn -0.9659 0.0000 0.2588
vn -0.5000 0.0000 -0.8660
usemtl handle
s 1
f 7/1/1 18/2/2 42/3/2 31/4/1
f 193/5/3 188/6/4 22/7/4 21/8/3
f 14/9/5 13/10/6 37/11/6 38/12/5
f 190/13/7 6/14/8 30/15/8 29/16/7
f 188/17/4 2/18/9 23/19/9 22/20/4
f 13/10/6 12/21/10 36/22/10 37/11/6
f 6/14/8 189/23/11 19/24/11 30/15/8
f 2/18/9 3/25/12 24/26/12 23/19/9
f 12/21/10 11/27/13 35/28/13 36/22/10
f 3/25/12 192/29/14 25/30/14 24/26/12
f 11/27/13 10/31/15 34/32/15 35/28/13
f 18/2/2 17/33/16 41/34/16 42/3/2
f 54/35/17 18/2/18 7/1/19 43/36/20
f 43/36/20 7/1/21 8/37/21 44/38/22
f 44/38/22 8/37/23 9/39/24 45/40/25
f 45/41/25 9/42/24 10/31/26 46/43/27
f 46/43/27 10/31/26 11/27/28 47/44/29
f 47/44/29 11/27/28 12/21/30 48/45/31
f 48/45/31 12/21/30 13/10/32 49/46/33
f 49/46/33 13/10/32 14/9/34 50/47/35
f 50/47/35 14/9/34 15/48/36 51/49/37
f 51/49/37 15/48/36 16/50/38 52/51/39
f 52/51/39 16/50/38 17/33/40 53/52/41
f 53/52/41 17/33/42 18/2/18 54/35/17
f 41/34/42 30/15/42 19/24/18 42/3/18
f 40/53/38 29/16/38 30/15/40 41/34/40
f 39/54/36 28/55/36 29/16/38 40/53/38
f 38/12/34 27/56/34 28/55/36 39/54/36
f 37/11/43 26/57/43 27/56/34 38/12/34
f 36/22/30 25/30/30 26/57/44 37/11/44
f 35/28/28 24/26/28 25/30/30 36/22/30
f 34/32/45 23/19/45 24/26/28 35/28/28
f 33/58/24 22/20/24 23/19/46 34/32/46
f 32/59/47 21/8/47 22/7/24 33/60/24
f 31/4/21 20/61/21 21/8/47 32/59/47
f 42/3/18 19/24/18 20/61/19 31/4/19
f 5/62/48 190/13/7 29/16/7 28/55/48
f 15/48/49 14/9/5 38/12/5 39/54/49
f 194/63/50 193/5/3 21/8/3 20/61/50
f 8/37/51 7/1/1 31/4/1 32/59/51
f 191/64/52 5/62/48 28/55/48 27/56/52
f 16/50/53 15/48/49 39/54/49 40/53/53
f 189/23/11 194/63/50 20/61/50 19/24/11
f 9/39/54 8/37/51 32/59/51 33/60/54
f 4/65/55 191/64/52 27/56/52 26/57/55
f 17/33/16 16/50/53 40/53/53 41/34/16
f 10/31/15 9/42/54 33/58/54 34/32/15
f 192/29/14 4/65/55 26/57/55 25/30/14
f 50/47/35 51/49/37 64/66/56 63/67/57
f 47/44/29 48/45/31 61/68/58 60/69/59
f 44/38/22 45/40/25 58/70/60 57/71/61
f 51/49/37 52/51/39 65/72/62 64/66/56
f 48/45/31 49/46/33 62/73/63 61/68/58
f 45/41/25 46/43/27 59/74/64 58/75/60
f 52/51/39 53/52/41 66/76/65 65/72/62
f 54/35/17 43/36/20 56/77/66 67/78/67
f 49/46/33 50/47/35 63/67/57 62/73/63
f 46/43/27 47/44/29 60/69/59 59/74/64
f 53/52/41 54/35/17 67/78/67 66/76/65
f 43/36/20 44/38/22 57/71/61 56/77/66
f 79/79/42 66/76/65 67/78/67 68/80/42
f 78/81/38 65/72/62 66/76/65 79/79/40
f 77/82/36 64/66/56 65/72/62 78/81/38
f 76/83/34 63/67/57 64/66/56 77/82/36
f 75/84/32 62/73/63 63/67/57 76/83/34
f 74/85/30 61/68/58 62/73/63 75/84/32
f 73/86/68 60/69/59 61/68/58 74/85/30
f 72/87/26 59/74/64 60/69/59 73/86/45
f 71/88/24 58/75/60 59/74/64 72/87/26
f 70/89/23 57/71/61 58/70/60 71/90/24
f 69/91/69 56/77/66 57/71/61 70/89/21
f 68/80/19 67/78/67 56/77/66 69/91/69
f 55/92/70 68/93/70 69/94/70
f 55/92/70 69/94/70 70/95/70
f 55/92/70 70/95/70 71/96/70
f 55/92/70 71/96/70 72/97/70
f 55/92/70 72/97/70 73/98/70
f 55/92/70 73/98/70 74/99/70
f 55/92/70 74/99/70 75/100/70
f 55/92/70 75/100/70 76/101/70
f 55/92/70 76/101/70 77/102/70
f 55/92/70 77/102/70 78/103/70
f 55/92/70 78/103/70 79/104/70
f 55/92/70 79/104/70 68/93/70
f 105/105/1 181/106/2 131/107/2 120/108/1
f 177/109/3 174/110/4 111/111/4 110/112/3
f 184/113/5 107/114/6 126/115/6 127/116/5
f 104/117/7 175/118/8 119/119/8 118/120/7
f 174/121/4 98/122/9 112/123/9 111/124/4
f 107/114/6 185/125/10 125/126/10 126/115/6
f 175/118/8 176/127/11 108/128/11 119/119/8
f 98/122/9 99/129/12 113/130/12 112/123/9
f 185/125/10 186/131/13 124/132/13 125/126/10
f 99/129/12 100/133/14 114/134/14 113/130/12
f 186/131/13 106/135/15 123/136/15 124/132/13
f 181/106/2 180/137/16 130/138/16 131/107/2
f 130/138/42 119/119/42 108/128/18 131/107/18
f 129/139/38 118/120/38 119/119/40 130/138/40
f 128/140/36 117/141/36 118/120/38 129/139/38
f 127/116/34 116/142/34 117/141/36 128/140/36
f 126/115/32 115/143/32 116/142/34 127/116/34
f 125/126/30 114/134/30 115/143/32 126/115/32
f 124/132/28 113/130/28 114/134/30 125/126/30
f 123/136/45 112/123/45 113/130/28 124/132/28
f 122/144/24 111/124/24 112/123/46 123/136/46
f 121/145/47 110/112/47 111/111/24 122/146/24
f 120/108/21 109/147/21 110/112/47 121/145/47
f 131/107/18 108/128/18 109/147/19 120/108/19
f 103/148/48 104/117/7 118/120/7 117/141/48
f 183/149/49 184/113/5 127/116/5 128/140/49
f 178/150/50 177/109/3 110/112/3 109/147/50
f 187/151/51 105/105/1 120/108/1 121/145/51
f 102/152/52 103/148/48 117/141/48 116/142/52
f 182/153/53 183/149/49 128/140/49 129/139/53
f 176/127/11 178/150/50 109/147/50 108/128/11
f 179/154/54 187/151/51 121/145/51 122/146/54
f 101/155/55 102/152/52 116/142/52 115/143/55
f 180/137/16 182/153/53 129/139/53 130/138/16
f 106/135/15 179/156/54 122/144/54 123/136/15
f 100/133/14 101/155/55 115/143/55 114/134/14
f 137/157/1 170/158/2 166/159/2 155/160/1
f 132/161/3 167/162/4 146/163/4 145/164/3
f 140/165/5 171/166/6 161/167/6 162/168/5
f 93/169/7 136/170/8 154/171/8 153/172/7
f 167/173/4 133/174/9 147/175/9 146/176/4
f 171/166/6 139/177/10 160/178/10 161/167/6
f 136/170/8 92/179/11 143/180/11 154/171/8
f 133/174/9 134/181/12 148/182/12 147/175/9
f 139/177/10 172/183/13 159/184/13 160/178/10
f 134/181/12 96/185/14 149/186/14 148/182/12
f 172/183/13 173/187/15 158/188/15 159/184/13
f 170/158/2 169/189/16 165/190/16 166/159/2
f 165/190/42 154/171/42 143/180/42 166/159/42
f 164/191/38 153/172/38 154/171/40 165/190/40
f 163/192/36 152/193/36 153/172/38 164/191/38
f 162/168/34 151/194/34 152/193/36 163/192/36
f 161/167/43 150/195/43 151/194/34 162/168/34
f 160/178/30 149/186/30 150/195/44 161/167/44
f 159/184/28 148/182/28 149/186/30 160/178/30
f 158/188/45 147/175/45 148/182/28 159/184/28
f 157/196/24 146/176/24 147/175/46 158/188/46
f 156/197/47 145/164/47 146/163/24 157/198/24
f 155/160/69 144/199/69 145/164/47 156/197/47
f 166/159/19 143/180/19 144/199/69 155/160/69
f 94/200/48 93/169/7 153/172/7 152/193/48
f 141/201/49 140/165/5 162/168/5 163/192/49
f 97/202/50 132/161/3 145/164/3 144/199/50
f 138/203/51 137/157/1 155/160/1 156/197/51
f 95/204/52 94/200/48 152/193/48 151/194/52
f 142/205/53 141/201/49 163/192/49 164/191/53
f 92/179/11 97/202/50 144/199/50 143/180/11
f 168/206/54 138/203/51 156/197/51 157/198/54
f 135/207/55 95/204/52 151/194/52 150/195/55
f 169/189/16 142/205/53 164/191/53 165/190/16
f 173/187/15 168/208/54 157/196/54 158/188/15
f 96/185/14 135/207/55 150/195/55 149/186/14
usemtl blade
f 92/209/19 81/210/19 80/211/19 97/212/19
f 97/212/21 80/211/21 82/213/47 132/214/47
f 132/214/47 82/213/47 83/215/24 167/216/24
f 167/217/24 83/218/24 84/219/26 133/220/26
f 133/220/26 84/219/26 85/221/45 134/222/45
f 134/222/68 85/221/68 86/223/30 96/224/30
f 96/224/30 86/223/30 87/225/32 135/226/32
f 135/226/32 87/225/32 88/227/34 95/228/34
f 95/228/34 88/227/34 89/229/36 94/230/36
f 94/230/36 89/229/36 90/231/38 93/232/38
f 93/232/38 90/231/38 91/233/40 136/234/40
f 136/234/42 91/233/42 81/210/42 92/209/42
f 1/235/71 80/236/71 81/237/71
f 1/235/71 82/238/71 80/236/71
f 1/235/71 83/239/71 82/238/71
f 1/235/71 84/240/71 83/239/71
f 1/235/71 85/241/71 84/240/71
f 1/235/71 86/242/71 85/241/71
f 1/235/71 87/243/71 86/242/71
f 1/235/71 88/244/71 87/243/71
f 1/235/71 89/245/71 88/244/71
f 1/235/71 90/246/71 89/245/71
f 1/235/71 91/247/71 90/246/71
f 1/235/71 81/237/71 91/247/71
f 139/177/30 171/166/32 101/155/32 100/133/30
f 141/201/72 142/205/38 104/117/38 103/148/72
f 138/203/47 168/206/24 174/110/24 177/109/47
f 172/183/68 139/177/30 100/133/30 99/129/68
f 140/165/34 141/201/73 103/148/73 102/152/34
f 137/157/21 138/203/47 177/109/47 178/150/21
f 169/189/74 170/158/42 176/127/42 175/118/74
f 173/187/26 172/183/45 99/129/45 98/122/26
f 171/166/32 140/165/34 102/152/34 101/155/32
f 170/158/19 137/157/19 178/150/19 176/127/19
f 142/205/38 169/189/74 175/118/74 104/117/38
f 168/208/24 173/187/26 98/122/26 174/121/24
f 184/113/34 183/149/36 5/62/36 191/64/34
f 105/105/21 187/151/47 193/5/47 194/63/21
f 180/137/74 181/106/42 189/23/42 6/14/74
f 106/135/26 186/131/45 3/25/45 2/18/26
f 107/114/43 184/113/34 191/64/34 4/65/43
f 181/106/19 105/105/19 194/63/19 189/23/19
f 182/153/38 180/137/74 6/14/74 190/13/38
f 179/156/46 106/135/26 2/18/26 188/17/46
f 185/125/30 107/114/44 4/65/44 192/29/30
f 183/149/36 182/153/38 190/13/38 5/62/36
f 187/151/47 179/154/23 188/6/23 193/5/47
f 186/131/68 185/125/30 192/29/30 3/25/68
